Coordinates
version=1
nRows=38
nColumns=12
inDegrees=yes

Units are S.I. units (second, meters, Newtons, ...)
Angles are in degrees

endheader
time	SC_y	SC_z	SC_x	AC_y	AC_z	AC_x	GH_y	GH_z	GH_yy	EL_x	PS_y
       0.0              -36.45          4.359          43.69          41.69         -8.093          9.519          117.1          66.67         -101.5          27.78           48.3
   0.04121              -36.45           4.36          43.69          41.69         -8.093          9.516          117.1          66.67         -101.5          27.79           48.3
   0.08242              -36.44          4.362          43.69          41.69         -8.092          9.512          117.0          66.66         -101.6          27.81           48.3
    0.1236              -36.44          4.363          43.69          41.69         -8.092          9.508          117.0          66.66         -101.6          27.83          48.31
    0.1648              -36.44          4.365          43.69          41.69         -8.092          9.504          117.0          66.65         -101.6          27.85          48.31
     0.206              -36.43          4.366          43.69          41.69         -8.091          9.499          117.0          66.64         -101.6          27.87          48.31
    0.2473              -36.43          4.368          43.69          41.69         -8.091          9.494          116.9          66.64         -101.6          27.89          48.31
    0.2885              -36.42           4.37          43.69           41.7          -8.09          9.489          116.9          66.63         -101.6          27.91          48.31
    0.3297              -36.41          4.372          43.69           41.7          -8.09          9.483          116.9          66.62         -101.6          27.94          48.31
    0.3709              -36.41          4.374          43.69           41.7          -8.09          9.477          116.9          66.61         -101.6          27.96          48.32
    0.4121               -36.4          4.376          43.69           41.7         -8.089          9.471          116.8           66.6         -101.7          27.99          48.32
    0.4533              -36.39          4.379          43.69           41.7         -8.089          9.464          116.8          66.59         -101.7          28.02          48.32
    0.4945              -36.39          4.381          43.69           41.7         -8.088          9.457          116.8          66.58         -101.7          28.05          48.32
    0.5357              -36.38          4.384           43.7           41.7         -8.087          9.449          116.7          66.57         -101.7          28.09          48.33
    0.5769              -36.37          4.387           43.7           41.7         -8.087           9.44          116.7          66.56         -101.7          28.13          48.33
    0.6181              -36.36          4.391           43.7           41.7         -8.086           9.43          116.6          66.54         -101.8          28.17          48.33
    0.6593              -36.35          4.394           43.7           41.7         -8.085           9.42          116.6          66.53         -101.8          28.22          48.34
    0.7006              -36.34          4.398           43.7           41.7         -8.084          9.409          116.5          66.51         -101.8          28.26          48.34
    0.7418              -36.33          4.403           43.7          41.71         -8.083          9.397          116.5           66.5         -101.8          28.32          48.34
     0.783              -36.31          4.407           43.7          41.71         -8.082          9.383          116.4          66.48         -101.9          28.38          48.35
    0.8242               -36.3          4.413          43.71          41.71         -8.081          9.369          116.3          66.45         -101.9          28.44          48.35
    0.8654              -36.28          4.418          43.71          41.71          -8.08          9.353          116.3          66.43         -101.9          28.51          48.36
    0.9066              -36.26          4.425          43.71          41.71         -8.078          9.335          116.2           66.4         -102.0          28.59          48.36
    0.9478              -36.24          4.432          43.71          41.71         -8.077          9.315          116.1          66.38         -102.0          28.68          48.37
     0.989              -36.22           4.44          43.72          41.72         -8.075          9.293          116.0          66.34         -102.1          28.78          48.38
      1.03              -36.19          4.448          43.72          41.72         -8.073          9.268          115.8          66.31         -102.1          28.88          48.39
     1.071              -36.16          4.458          43.72          41.72         -8.071          9.241          115.7          66.27         -102.2          29.01           48.4
     1.113              -36.13          4.469          43.73          41.73         -8.068           9.21          115.6          66.22         -102.3          29.14          48.41
     1.154               -36.1          4.481          43.73          41.73         -8.066          9.175          115.4          66.17         -102.4           29.3          48.42
     1.195              -36.06          4.496          43.74          41.73         -8.063          9.136          115.2          66.11         -102.5          29.47          48.43
     1.236              -36.01          4.512          43.75          41.74         -8.059           9.09          115.0          66.05         -102.6          29.67          48.45
     1.277              -35.96           4.53          43.75          41.74         -8.055          9.038          114.7          65.97         -102.7           29.9          48.46
     1.319              -35.89          4.551          43.76          41.75          -8.05          8.979          114.4          65.88         -102.9          30.16          48.49
      1.36              -35.82          4.576          43.77          41.76         -8.045          8.909          114.1          65.78         -103.0          30.47          48.51
     1.401              -35.74          4.605          43.78          41.77         -8.038          8.827          113.7          65.66         -103.2          30.83          48.54
     1.442              -35.64          4.639           43.8          41.78         -8.031          8.731          113.2          65.52         -103.5          31.25          48.57
     1.484              -35.52           4.68          43.81          41.79         -8.022          8.617          112.6          65.36         -103.7          31.76          48.61
     1.525              -35.38          4.728          43.83           41.8         -8.011           8.48          112.0          65.16         -104.1          32.36          48.65
